<svg width="181" height="24" viewBox="0 0 181 24" xmlns="http://www.w3.org/2000/svg"><g fill="none" fill-rule="evenodd"><path d="M177.667 19.267c.394 0 .744.03.744.448 0 .447-.61.372-1.057.372h-.506v-.82h.82zm.343 1.298c.437-.014.876-.254.876-.902 0-.694-.535-.873-1.13-.873h-1.384v3.296h.476v-1.52h.61l.84 1.52h.543l-.831-1.52zm-.507 2.784a2.91 2.91 0 0 0 2.931-2.933 2.91 2.91 0 0 0-2.931-2.931 2.91 2.91 0 0 0-2.931 2.931 2.91 2.91 0 0 0 2.93 2.933zm0-5.387a2.448 2.448 0 0 1 2.457 2.454 2.45 2.45 0 0 1-2.457 2.454 2.448 2.448 0 0 1-2.454-2.454 2.445 2.445 0 0 1 2.454-2.454z" fill="#002147"/><path d="M170.952.588s1.133 1.536 1.014 2.204c-.041.217-.047.442-.14.68-1.382 3.472-2.4 6.028-3.103 7.77L165.838.587h-15.386s1.115 1.44.88 2.372c-.06.231-.128 1.005-1.32 2.962l-3.014 4.977-.315-10.31h-6.278L139.06.57s.79.909.757 2.088c-.031 1.077-.466 2.428-1.383 4.008l-2.59 4.363.335-10.442h-9.04l.904 1.403c.389.647.582 1.418.567 2.56l-.026 1.208a8.223 8.223 0 0 0-2.106-2.779c-1.804-1.587-4.091-2.392-6.8-2.392-3.618 0-6.978 1.337-9.992 3.977-1.08.951-1.973 1.959-2.687 3.017-.04-1.974-.739-3.672-2.088-4.922C102.842.744 99.937.588 96.631.588L95.174.59h-8.676s1.62 1.59 1.319 2.399c-.104.422-.507 1.588-1.813 4.736l-3.118 7.55-1.364 3.358c-3.85-1.899-5.73-4.214-6.5-5.4 1.886-.793 3.747-1.96 4.59-2.912.297-.337 1.3-1.548 1.758-2.912.597-1.795.43-3.413-.481-4.681C79.815 1.235 77.787.412 75.173.412L65.14.482s1.459 1.566.886 3.073c-.2.51-3.465 8.77-5.329 13.323l-.84-16.29H27.12s1.485 1.515 1.534 2.404c.013.26-.108.946-.832 2.608l-4.198 9.533c.015-.155.026-.31.026-.46 0-1.426-.564-2.58-1.671-3.424a5.121 5.121 0 0 0-.592-.393c.381-.235.782-.513 1.199-.836 1.608-1.235 2.57-2.398 2.943-3.568.16-.528.24-1.064.24-1.593 0-1.471-.627-2.727-1.872-3.741C22.938.366 21.48 0 19.443 0L6.944.088s1.66 1.732 1.498 2.348c-.022.08-.045.61-.954 2.831L0 23.784h10.03c2.723 0 5.253-.503 7.521-1.498 1.815-.787 3.248-1.825 4.288-3.097l-1.765 4.008h22.498l5.088-6.39h6.086l.274 6.39h4.07l.002.013 3.119-.007 3.832.024 3.257-7.68c1.02 1.555 2.91 3.847 6.894 6.01 3.362 1.825 8.417 2.209 12.066 2.209h.001c2.882 0 5.187-.487 6.154-.741.883-.234 2.107-.742 2.961-1.12.272-.11.54-.235.805-.364l.193-.09-.014.001c.33-.165.659-.337.984-.528 2.68-1.544 5.032-3.885 6.599-6.5.048 2.615 1.02 4.763 2.891 6.385 1.802 1.585 4.09 2.389 6.799 2.389 3.618 0 6.98-1.336 9.993-3.975 1.727-1.521 2.984-3.182 3.77-4.966l-.193 8.837h6.018l5.792-10.047.215 10.151h5.292l12.523-20.29c-.003.628-.088.972-.16 1.15l-6.009 14.883c-.693 1.737-1.676 2.68-1.676 2.68l-1.6 1.578h8.687l4.957-12.105 2.364 7.194c1.394 4.278 1.422 4.333 1.48 4.443l.242.468h4.768l9.146-22.61h-9.29zM15.092 15.581c-.691 1.28-1.56 2.148-2.657 2.655-.7.324-1.582.543-2.636.655l2.242-5.699.46.002c1.36 0 2.982.203 2.982 1.17 0 .22-.069.61-.391 1.217zm.974-7.333c-.722.359-1.52.6-2.385.72L15.4 4.86c.346-.032.632-.047.852-.047.494 0 .883.096 1.198.3.27.17.38.37.38.69 0 .667-.184 1.645-1.763 2.444zm33.751-5.037l-11.63 14.88h-8.118l1.713-3.91 7.236.014 4.125-5.374h-9.196l1.363-2.83h10.03L49.315.812s.897.999.924 1.398c.02.302-.142.641-.422 1.001zm1.88 8.21l1.73-2.476.093 2.475h-1.823zm23.005-4.59c-.645 1.556-2.412 2.409-3.982 2.87l1.887-4.48c.227-.022.43-.036.623-.046.056-.003.108-.004.16-.004.655 0 1.155.183 1.368.497.23.343.064.875-.056 1.163zm23.27 4.828c-.763 1.864-1.733 3.356-2.964 4.554-1.6 1.535-2.92 2.105-4.876 2.105-.172 0-.333-.007-.489-.017L94.8 5.828a12.015 12.015 0 0 1 1.665-.135c1.007 0 1.67.26 2.028.798.626.938.431 2.869-.52 5.168zm22.112 3.355c-1.727 1.721-3.497 2.56-5.412 2.56-.952 0-1.668-.295-2.186-.903-.552-.645-.82-1.46-.82-2.488 0-1.918.838-3.687 2.563-5.409 1.727-1.723 3.496-2.56 5.41-2.56.958 0 1.688.306 2.221.923.53.63.786 1.437.786 2.466 0 1.919-.839 3.689-2.562 5.411z" fill="#FFF"/><path d="M172.33 1.458h6.624l-8.44 20.872h-3.66c-.038-.077-.511-1.511-1.423-4.312l-3.1-9.433-5.63 13.745h-6.173c.802-.454 1.519-1.477 2.152-3.067l6.01-14.88c.148-.372.223-.882.223-1.533 0-.612-.13-1.076-.392-1.392h6.653l3.386 12.494c.519-1.252 1.877-4.64 4.07-10.16.134-.333.202-.665.202-1.001 0-.63-.168-1.073-.502-1.333M111.826 17.237c-.684-.803-1.027-1.82-1.027-3.054 0-2.142.94-4.151 2.817-6.025 1.88-1.875 3.888-2.813 6.024-2.813 1.211 0 2.173.411 2.886 1.233.657.786.987 1.794.987 3.025 0 2.143-.94 4.152-2.818 6.027-1.88 1.874-3.885 2.813-6.023 2.813-1.211 0-2.16-.402-2.846-1.206m-1.568-12.018c-2.967 2.615-4.453 5.615-4.453 8.997 0 2.455.864 4.433 2.6 5.938 1.647 1.45 3.723 2.176 6.228 2.176 3.417 0 6.558-1.254 9.42-3.76 2.97-2.615 4.455-5.605 4.455-8.972 0-2.472-.866-4.458-2.602-5.964-1.648-1.45-3.723-2.176-6.226-2.176-3.418 0-6.557 1.254-9.422 3.76M133.721 22.222h-4.632l.389-17.652c.02-1.384-.288-2.423-.92-3.112h6.728l-.417 12.916 4.31-7.261c1.006-1.732 1.506-3.216 1.506-4.454 0-.582-.092-.983-.28-1.2h5.436l.38 12.397 4.534-7.483c.964-1.583 1.444-2.722 1.444-3.413 0-.545-.147-1.047-.436-1.502h6.157L145.036 22.33h-3.96l-.262-12.41-7.093 12.303zM105.205 11.987c1.418-3.422 1.275-6.69-.88-8.689-2.159-1.996-5.576-1.837-9.152-1.837h-7.034s.7.779.526 1.71c-.22.923-1.41 3.806-1.86 4.887l-3.118 7.545-1.206 2.977c.004.003-.2.492-.193.493 1.113.483 2.598 1.001 5.195 1.725 2.6.725 6.3 1.347 6.3 1.347.799-.293 3.276-1.477 4.13-1.975 3.352-1.933 6.026-5.106 7.292-8.183m-15.074 7.201c-.596 0-1.167-.066-1.687-.256l5.741-13.888c.784-.128 1.555-.221 2.28-.221 4.08 0 3.662 3.9 2.309 7.164-.686 1.683-1.668 3.395-3.166 4.854-1.818 1.745-3.39 2.347-5.477 2.347" fill="#002147"/><path d="M11.452 12.321l1.05.004c2.564 0 3.849.68 3.849 2.039 0 .466-.167 1.01-.496 1.632-.777 1.437-1.795 2.446-3.056 3.028-1.088.506-2.523.778-4.306.816l2.959-7.519zM8.408.871c.6.348.9.87.9 1.563 0 .445-.337 1.5-1.017 3.16L1.288 22.916h8.742c2.615 0 5.007-.476 7.176-1.427 2.594-1.127 4.319-2.757 5.17-4.893.27-.68.407-1.32.407-1.922 0-1.145-.446-2.059-1.333-2.737-.753-.583-1.74-.912-2.957-.99.927.039 2.118-.5 3.566-1.616 1.452-1.117 2.33-2.16 2.64-3.13a4.58 4.58 0 0 0 .203-1.341c0-1.204-.514-2.222-1.538-3.057-.795-.622-2.1-.933-3.923-.933H8.408zm6.391 3.177a13.72 13.72 0 0 1 1.453-.105c.66 0 1.213.146 1.659.436.522.33.785.805.785 1.424 0 1.393-.748 2.468-2.246 3.224-1.204.6-2.576.9-4.111.9l2.46-5.879zM44.913 5.12H34.765l-2.198 4.572h8.814l-2.79 3.634-7.374-.015-2.476 5.65h10.543l-1.37 3.367h-16.51L28.617 5.95c.602-1.387.904-2.375.904-2.96 0-.674-.274-1.186-.822-1.535h19.028L44.913 5.12zM73.778 12.78c2.088-.723 4.34-2.08 5.183-3.033.417-.473 1.225-1.53 1.587-2.612 1.145-3.442-1.016-5.854-5.37-5.854l-8.674.041s.931.747.338 2.53c0 0-5.774 14.62-6.56 16.228-.786 1.612-2.192 2.262-2.192 2.262l3.126-.01 3.255.022 3.693-8.706c.71 1.13 2.08 4.23 7.445 7.146 5.57 3.025 16.405 1.95 17.338 1.772-.748-.048-3-.25-7.176-1.41-9.664-2.679-11.997-8.386-11.993-8.376m-4.515-1.854l2.743-6.513c.388-.047.782-.088 1.188-.106 1.048-.047 1.873.27 2.284.876.341.51.35 1.196.025 1.981-1.03 2.483-4.216 3.415-6.24 3.762" fill="#AB0520"/><path d="M54.2 6.326l.22 5.964h-4.39l4.17-5.964zm-3.34-4.87c.163.224.246.476.246.755 0 .504-.202 1.015-.606 1.537L35.978 22.329h6.177l5.087-6.391h7.334l.275 6.391h5.26L59.031 1.457H50.86z" fill="#AB0520"/></g></svg>